<svg width="105" height="139" viewBox="0 0 105 139" fill="none" xmlns="http://www.w3.org/2000/svg">
<path d="M27 18L43.1728 32.3276L50.7149 39H51.3629L59.3974 31.862L62.9222 28.7327L75 18.0259L27 18Z" fill="#0F120D"/>
<path d="M91.3066 46.7846C85.3096 40.428 77.5826 35.982 69.0871 34L68.3895 34.6224L61.5945 40.6905C63.143 41.1075 64.6484 41.6719 66.0901 42.3761C69.6104 44.1082 72.66 46.6709 74.9779 49.8446C77.312 53.2816 79.0584 57.0854 80.1452 61.0992C81.3632 65.1575 82.1768 69.3272 82.5739 73.5468C82.9097 77.3848 83.0648 81.7414 83.0648 86.513C83.1301 93.5914 82.3494 100.652 80.7394 107.544C79.1619 113.989 75.8349 119.869 71.1282 124.53C68.6849 127.006 65.7563 128.945 62.5275 130.226C59.2988 131.507 55.8403 132.102 52.3708 131.972C41.485 131.972 33.6909 127.65 28.9887 119.006C24.0519 109.399 21.6251 98.6923 21.9353 87.8874C21.9353 62.1971 28.3687 46.6895 41.2353 41.3648L33.846 34.7779C26.3805 37.1321 19.6389 41.3635 14.2619 47.0698C4.75399 57.1835 0 70.4695 0 86.9279C0 103.058 4.71088 115.765 14.1326 125.048C23.5544 134.332 36.3005 138.983 52.3708 139C67.9762 139 80.6447 134.064 90.3765 124.193C100.108 114.321 104.983 101.571 105 85.9425C104.966 69.6224 100.401 56.5698 91.3066 46.7846Z" fill="#0F120D"/>
<path d="M24 11C26.0671 7.43101 27.9556 4.07508 29.9972 0.825705C30.2373 0.562764 30.5265 0.35386 30.8469 0.21187C31.1672 0.0698787 31.5121 -0.00219149 31.8602 5.07569e-05C44.6031 5.07569e-05 57.363 5.07569e-05 70.1399 5.07569e-05C70.521 0.0143281 70.895 0.111762 71.2379 0.286079C71.5807 0.460397 71.8848 0.707746 72.1305 1.01216C74.121 4.20827 75.9584 7.48428 78 11H24Z" fill="#0F120D"/>
</svg>
